<?xml version="1.0" encoding="UTF-8"?>
<svg version="1.1" xmlns="http://www.w3.org/2000/svg" width="256" height="256">
<path d="M0 0 C20.93209494 17.85995589 35.09032622 38.66215882 43.35546875 64.91796875 C43.67306152 65.91014404 43.67306152 65.91014404 43.99707031 66.92236328 C50.43792965 88.14861843 50.08146576 115.82846601 43.35546875 136.91796875 C43.1140918 137.69591797 42.87271484 138.47386719 42.62402344 139.27539062 C37.16617741 156.42469801 28.80508339 171.10011135 17.35546875 184.91796875 C16.68773437 185.73910156 16.02 186.56023437 15.33203125 187.40625 C10.28919179 193.36503376 4.52680035 198.16426078 -1.64453125 202.91796875 C-2.50949219 203.59859375 -3.37445313 204.27921875 -4.265625 204.98046875 C-14.5331178 212.79169656 -25.48152078 218.38463387 -37.58203125 222.73046875 C-38.34314209 223.00834229 -39.10425293 223.28621582 -39.88842773 223.57250977 C-53.18586419 228.12123218 -66.4994586 229.47987693 -80.45703125 229.35546875 C-81.56813766 229.35040817 -81.56813766 229.35040817 -82.70169067 229.34524536 C-94.3998235 229.26831605 -105.44534642 228.48968329 -116.64453125 224.91796875 C-117.42248047 224.6765918 -118.20042969 224.43521484 -119.00195312 224.18652344 C-151.7968021 213.74941177 -178.64137689 191.35360246 -194.94067383 161.01953125 C-199.56604139 152.02434129 -202.89263461 142.63553401 -205.64453125 132.91796875 C-205.98613281 131.73976562 -206.32773438 130.5615625 -206.6796875 129.34765625 C-212.8838963 103.08798178 -209.41232472 73.42057111 -198.64453125 48.91796875 C-198.36125977 48.26376953 -198.07798828 47.60957031 -197.78613281 46.93554688 C-184.50025914 16.84047391 -158.92296839 -6.86621714 -128.44824219 -18.953125 C-123.24959242 -20.91249452 -117.98852774 -22.56867625 -112.64453125 -24.08203125 C-111.46632813 -24.42363281 -110.288125 -24.76523437 -109.07421875 -25.1171875 C-71.89538636 -33.90119735 -29.46016707 -24.12690013 0 0 Z " fill="#A70B2E" transform="translate(208.64453125,27.08203125)"/>
<path d="M0 0 C2 2 2 2 2 3.9375 C1 6 1 6 -2.0078125 7.1796875 C-2.99523437 7.78039063 -3.98265625 8.38109375 -5 9 C-5.94310139 12.40163148 -5.94310139 12.40163148 -5.875 16.1875 C-5.91625 18.435625 -5.9575 20.68375 -6 23 C-0.72 23 4.56 23 10 23 C10.66 21.35 11.32 19.7 12 18 C15.7454091 14.28213067 19.89119159 12.66602715 25.125 12.5 C30.98017738 12.8317635 34.50097173 14.66390958 38.875 18.5625 C41 21 41 21 41 23 C56.51 23 72.02 23 88 23 C88.6037173 14.76769636 88.6037173 14.76769636 86 8 C83.57215346 7.88038123 81.17144163 7.82458324 78.7421875 7.81054688 C77.98286926 7.80225357 77.22355103 7.79396027 76.44122314 7.78541565 C74.78735471 7.76797809 73.13346105 7.75282151 71.47955322 7.73963928 C68.86634734 7.7186806 66.2532684 7.69165315 63.64013672 7.66296387 C58.09347275 7.60316399 52.54675051 7.55104885 47 7.5 C40.57531945 7.44087123 34.15070159 7.37865532 27.72613525 7.30812073 C25.14410389 7.28144735 22.56206658 7.26069244 19.97998047 7.2401123 C18.40592139 7.22351622 16.83186518 7.20664499 15.2578125 7.18945312 C14.53362122 7.18526871 13.80942993 7.18108429 13.06329346 7.17677307 C8.11384346 7.11384346 8.11384346 7.11384346 7 6 C6.875 3.5 6.875 3.5 7 1 C8.95205145 -0.95205145 12.6956298 -0.17741765 15.36206055 -0.19287109 C16.51825142 -0.20513733 16.51825142 -0.20513733 17.69779968 -0.21765137 C20.2607647 -0.2425583 22.82367402 -0.25903764 25.38671875 -0.2734375 C26.26091776 -0.27876118 27.13511677 -0.28408485 28.03580666 -0.28956985 C32.6657079 -0.31632854 37.29558197 -0.3356919 41.92553711 -0.35009766 C46.70631251 -0.36672327 51.48639554 -0.41147532 56.2669096 -0.4624691 C59.94298582 -0.49615206 63.61889828 -0.50767642 67.29511452 -0.51332474 C69.05696699 -0.52003781 70.81880867 -0.53526143 72.58051109 -0.55921555 C75.05123241 -0.59088447 77.52009526 -0.59090161 79.9909668 -0.58349609 C80.71588318 -0.59990143 81.44079956 -0.61630676 82.18768311 -0.63320923 C85.96883338 -0.58694978 88.44476293 -0.02370161 91.37556458 2.28646851 C95.31366116 6.3582582 96.24835937 8.96395019 96.26742554 14.60372925 C96.27595551 15.7448819 96.28448547 16.88603455 96.29327393 18.06176758 C96.29236755 19.30966064 96.29146118 20.55755371 96.29052734 21.84326172 C96.29724457 23.16069366 96.30396179 24.47812561 96.31088257 25.83547974 C96.32854274 29.44711939 96.33323795 33.05866426 96.33451414 36.67034292 C96.3359363 38.92778222 96.34020712 41.18519745 96.34550858 43.44263077 C96.36400895 51.32098164 96.37217919 59.19926485 96.37060547 67.07763672 C96.36940408 74.41676467 96.3905057 81.75559852 96.4220928 89.09465206 C96.44826059 95.39967158 96.45897256 101.70459507 96.45769465 108.00966847 C96.45718516 111.77362923 96.46286101 115.53732861 96.48405075 119.3012352 C96.50344189 122.84229793 96.50355219 126.38285019 96.48901749 129.92393112 C96.48593575 131.83837104 96.50259983 133.75281104 96.51989746 135.66717529 C96.47316099 142.05615688 96.39938838 146.19076919 92 151 C88.01311463 154.51784004 84.18406877 154.29320832 79.109375 154.203125 C77 154 77 154 76 153 C75.875 150.5 75.875 150.5 76 148 C77.92573236 146.07426764 81.35537698 146.5128147 83.96875 146.28125 C85.99180593 146.20934163 85.99180593 146.20934163 87 145 C87.33 140.38 87.66 135.76 88 131 C56.98 131 25.96 131 -6 131 C-6.6037173 139.23230364 -6.6037173 139.23230364 -4 146 C-1.74112875 146.1136124 0.52129402 146.15688918 2.78295898 146.17358398 C3.84637512 146.1836145 3.84637512 146.1836145 4.93127441 146.19384766 C6.47546587 146.20792849 8.01967851 146.21981281 9.5639019 146.22979546 C12.00516827 146.24615456 14.44627741 146.26938941 16.88746643 146.29469299 C23.82992777 146.36561362 30.77245336 146.4256514 37.71508789 146.47680664 C41.95679946 146.50854379 46.19833118 146.54980603 50.43989754 146.59700203 C52.05983313 146.61305464 53.67981021 146.62536107 55.29980278 146.63390923 C57.56260378 146.6460214 59.82497962 146.67015292 62.08764648 146.69702148 C64.02171608 146.71248268 64.02171608 146.71248268 65.99485779 146.72825623 C69 147 69 147 71 149 C70.625 151.625 70.625 151.625 70 154 C60.19458247 154.11596607 50.38932869 154.20475187 40.58336449 154.25906086 C36.02977614 154.28512967 31.47665774 154.32047752 26.92333984 154.37719727 C22.52721173 154.43161481 18.13153497 154.46144098 13.73509598 154.47438622 C12.05974855 154.4836087 10.3844252 154.50161856 8.70927048 154.52865028 C6.35821349 154.5650723 4.00900959 154.56994018 1.65771484 154.56762695 C0.62408813 154.59459152 0.62408813 154.59459152 -0.43041992 154.62210083 C-4.13084443 154.58283377 -6.49449952 153.96890497 -9.35360718 151.71452332 C-13.31727656 147.6488106 -14.2483207 145.04748734 -14.26742554 139.39627075 C-14.27595551 138.2551181 -14.28448547 137.11396545 -14.29327393 135.93823242 C-14.29236755 134.69033936 -14.29146118 133.44244629 -14.29052734 132.15673828 C-14.30060318 130.18059036 -14.30060318 130.18059036 -14.31088257 128.16452026 C-14.32854274 124.55288061 -14.33323795 120.94133574 -14.33451414 117.32965708 C-14.3359363 115.07221778 -14.34020712 112.81480255 -14.34550858 110.55736923 C-14.36400895 102.67901836 -14.37217919 94.80073515 -14.37060547 86.92236328 C-14.36940408 79.58323533 -14.3905057 72.24440148 -14.4220928 64.90534794 C-14.44826059 58.60032842 -14.45897256 52.29540493 -14.45769465 45.99033153 C-14.45718516 42.22637077 -14.46286101 38.46267139 -14.48405075 34.6987648 C-14.50344189 31.15770207 -14.50355219 27.61714981 -14.48901749 24.07606888 C-14.48593575 22.16162896 -14.50259983 20.24718896 -14.51989746 18.33282471 C-14.46238492 10.47072851 -13.72158604 6.72158604 -8.125 1.125 C-5.26258568 -0.39039582 -3.18994323 -0.34673296 0 0 Z " fill="#FBF6F7" transform="translate(87,51)"/>
<path d="M0 0 C4.95 0 9.9 0 15 0 C15.33 12.54 15.66 25.08 16 38 C17.98 38.66 19.96 39.32 22 40 C24.85546875 41.23828125 24.85546875 41.23828125 27 43 C27.48828125 45.91796875 27.48828125 45.91796875 27.3125 49.1875 C27.26738281 50.27417969 27.22226563 51.36085937 27.17578125 52.48046875 C27.11777344 53.31191406 27.05976563 54.14335937 27 55 C25.7315625 54.4740625 25.7315625 54.4740625 24.4375 53.9375 C17.47554623 52.03878534 11.99877881 54.6301396 5.87109375 57.7109375 C5.11836685 58.0797403 4.36563995 58.44854309 3.59010315 58.82852173 C1.20129036 60.00158077 -1.1805789 61.18802018 -3.5625 62.375 C-5.16557635 63.16495455 -6.76908839 63.95402562 -8.37304688 64.7421875 C-14.59425846 67.80383168 -20.79824913 70.89912457 -27 74 C-27.33 80.6 -27.66 87.2 -28 94 C-32.29 94 -36.58 94 -41 94 C-40.96221436 93.1028125 -40.92442871 92.205625 -40.88549805 91.28125 C-40.77534753 87.9163363 -40.72484116 84.5609795 -40.71313477 81.19482422 C-40.6962068 79.74546769 -40.65627748 78.2961758 -40.59204102 76.84814453 C-40.38421381 71.94477425 -40.49088581 67.70349746 -42 63 C-45.91537355 59.20065558 -49.99362323 57.19972081 -55 55 C-56.30276482 54.31068495 -57.60229959 53.61511442 -58.89453125 52.90625 C-59.85746094 52.4421875 -60.82039063 51.978125 -61.8125 51.5 C-63.524375 50.675 -65.23625 49.85 -67 49 C-67 45.04 -67 41.08 -67 37 C-61.64872882 37.55541927 -57.66916316 39.42298925 -52.96875 41.8515625 C-51.42079267 42.62804241 -49.87260863 43.40407051 -48.32421875 44.1796875 C-45.90516675 45.40274287 -43.48887672 46.63070172 -41.07666016 47.8671875 C-38.73497771 49.06350768 -36.38406436 50.23982326 -34.03125 51.4140625 C-33.31545776 51.78794098 -32.59966553 52.16181946 -31.86218262 52.54702759 C-26.48324634 55.21079916 -23.3683591 55.06403592 -17.60644531 53.24389648 C-16.85459961 52.95587158 -16.10275391 52.66784668 -15.328125 52.37109375 C-14.49925781 52.05849609 -13.67039063 51.74589844 -12.81640625 51.42382812 C-11.96949219 51.09833984 -11.12257812 50.77285156 -10.25 50.4375 C-8.54797599 49.78747439 -6.84489894 49.14019728 -5.140625 48.49609375 C-4.39329102 48.20919678 -3.64595703 47.9222998 -2.87597656 47.62670898 C-1 47 -1 47 1 47 C0.96970703 46.32235596 0.93941406 45.64471191 0.90820312 44.9465332 C0.25090866 29.9538992 -0.14337803 15.00690052 0 0 Z " fill="#A80E31" transform="translate(148,81)"/>
<path d="M0 0 C1.09054688 0.02320312 2.18109375 0.04640625 3.3046875 0.0703125 C4.40039062 0.08835937 5.49609375 0.10640625 6.625 0.125 C7.46804687 0.14820312 8.31109375 0.17140625 9.1796875 0.1953125 C9.36402344 0.85015625 9.54835938 1.505 9.73828125 2.1796875 C12.38647645 10.51267505 16.79374753 16.45768875 22.1796875 23.1953125 C22.8396875 24.1853125 23.4996875 25.1753125 24.1796875 26.1953125 C27.26334621 26.4455282 27.26334621 26.4455282 30.1796875 26.1953125 C30.44007812 25.63328125 30.70046875 25.07125 30.96875 24.4921875 C32.30349207 21.96048318 33.86859588 19.75724599 35.5546875 17.4453125 C39.43822373 11.95981757 42.53405671 6.77783565 44.1796875 0.1953125 C47.8096875 0.1953125 51.4396875 0.1953125 55.1796875 0.1953125 C56.49110434 14.17595279 56.27904849 28.16706931 56.1796875 42.1953125 C53.64413772 43.23422541 51.10310925 44.25138675 48.5546875 45.2578125 C47.84183594 45.55236328 47.12898438 45.84691406 46.39453125 46.15039062 C45.34072266 46.5612793 45.34072266 46.5612793 44.265625 46.98046875 C43.6267334 47.23707275 42.9878418 47.49367676 42.32958984 47.75805664 C37.15861175 48.80975114 32.8741111 46.77771923 28.36328125 44.4296875 C27.26822266 43.86894531 26.17316406 43.30820313 25.04492188 42.73046875 C23.91376953 42.14136719 22.78261719 41.55226562 21.6171875 40.9453125 C12.94825663 36.44131456 4.36701712 32.51345852 -4.8203125 29.1953125 C-4.8781429 24.73703324 -4.91385105 20.2788497 -4.9453125 15.8203125 C-4.96207031 14.54929687 -4.97882813 13.27828125 -4.99609375 11.96875 C-5.00253906 10.75703125 -5.00898437 9.5453125 -5.015625 8.296875 C-5.03133545 6.61585693 -5.03133545 6.61585693 -5.04736328 4.90087891 C-4.72500426 1.05960716 -3.83163587 0.26534874 0 0 Z " fill="#A80E30" transform="translate(85.8203125,80.8046875)"/>
<path d="M0 0 C0.7734375 0.4640625 0.7734375 0.4640625 1.5625 0.9375 C1.61189115 5.03088652 1.64821501 9.12415798 1.67236328 13.21777344 C1.68242877 14.61070781 1.69608234 16.00362102 1.71337891 17.39648438 C1.7376022 19.3970436 1.74790814 21.39775615 1.7578125 23.3984375 C1.77352295 25.20513916 1.77352295 25.20513916 1.78955078 27.04833984 C1.5625 29.9375 1.5625 29.9375 -0.4375 31.9375 C-2.42434692 32.17800903 -2.42434692 32.17800903 -4.88720703 32.16455078 C-5.80801056 32.16439972 -6.72881409 32.16424866 -7.67752075 32.16409302 C-8.67339203 32.15377045 -9.66926331 32.14344788 -10.6953125 32.1328125 C-11.71350067 32.1299826 -12.73168884 32.12715271 -13.7807312 32.12423706 C-17.041439 32.1130177 -20.30187484 32.08790996 -23.5625 32.0625 C-25.76952729 32.05247247 -27.97655888 32.04334623 -30.18359375 32.03515625 C-35.60166772 32.01307263 -41.01953771 31.97853082 -46.4375 31.9375 C-46.4375 26.6575 -46.4375 21.3775 -46.4375 15.9375 C-41.30755943 13.33269329 -36.16651664 10.75183011 -31.01391602 8.19213867 C-29.26394452 7.31869097 -27.51714123 6.43886476 -25.77368164 5.55249023 C-23.26220074 4.27705611 -20.74009533 3.02524547 -18.21484375 1.77734375 C-17.44164291 1.37845444 -16.66844208 0.97956512 -15.87181091 0.56858826 C-10.11584668 -2.23419792 -6.06819497 -2.64511063 0 0 Z " fill="#A70D30" transform="translate(173.4375,143.0625)"/>
<path d="M0 0 C4.20090751 0.905368 7.58059076 2.90384869 11.25 5.0625 C13.4775 6.361875 15.705 7.66125 18 9 C18 18.24 18 27.48 18 37 C15.40125 37.04125 12.8025 37.0825 10.125 37.125 C9.30789551 37.14320801 8.49079102 37.16141602 7.64892578 37.18017578 C5.76504951 37.19477217 3.88130688 37.09943482 2 37 C0 35 0 35 -0.22705078 31.56005859 C-0.22673369 30.08948021 -0.21540987 28.61887858 -0.1953125 27.1484375 C-0.1924826 26.37440582 -0.18965271 25.60037415 -0.18673706 24.80288696 C-0.17552754 22.32676843 -0.15042203 19.8510095 -0.125 17.375 C-0.11497118 15.69792188 -0.10584516 14.02083811 -0.09765625 12.34375 C-0.07558574 8.22902777 -0.04105102 4.11457489 0 0 Z " fill="#A70C2E" transform="translate(81,138)"/>
<path d="M0 0 C3.62715803 0.84845802 6.05528963 2.36358035 8.00390625 5.46875 C9.51995023 10.46438888 8.65507696 14.19784441 6.3046875 18.78515625 C4.33905744 21.86258446 2.44559813 24.75160913 0.00390625 27.46875 C-0.98609375 27.46875 -1.97609375 27.46875 -2.99609375 27.46875 C-4.75 25.45703125 -4.75 25.45703125 -6.55859375 22.78125 C-7.45771484 21.47607422 -7.45771484 21.47607422 -8.375 20.14453125 C-10.73174786 16.25447755 -12.01544596 13.55247351 -11.93359375 8.96875 C-10.22464457 2.58867307 -6.846455 -0.51965503 0 0 Z " fill="#AA1436" transform="translate(113.99609375,69.53125)"/>
<path d="M0 0 C1.98 0.99 1.98 0.99 4 2 C4 12.89 4 23.78 4 35 C2.68 34.34 1.36 33.68 0 33 C0 22.11 0 11.22 0 0 Z " fill="#A70D30" transform="translate(171,81)"/>
<path d="M0 0 C3.4375 0.1875 3.4375 0.1875 4.4375 1.1875 C4.5625 3.6875 4.5625 3.6875 4.4375 6.1875 C3.4375 7.1875 3.4375 7.1875 1.58984375 7.28515625 C-0.4609375 7.25260417 -2.51171875 7.22005208 -4.5625 7.1875 C-5.1875 4.8125 -5.1875 4.8125 -5.5625 2.1875 C-3.5625 0.1875 -3.5625 0.1875 0 0 Z " fill="#F6EAED" transform="translate(112.5625,75.8125)"/>
</svg>
