<?xml version="1.0" encoding="UTF-8"?>
<svg version="1.1" xmlns="http://www.w3.org/2000/svg" width="512" height="512">
<path d="M0 0 C0.8351413 -0.00705963 1.67028259 -0.01411926 2.5307312 -0.02139282 C37.97384721 -0.25281613 37.97384721 -0.25281613 54.9609375 3.203125 C55.96431152 3.40711914 56.96768555 3.61111328 58.00146484 3.82128906 C112.3232061 15.24606673 161.92037049 45.12754539 194.9609375 90.203125 C195.59128906 91.05003906 196.22164063 91.89695312 196.87109375 92.76953125 C219.13412015 123.55234907 232.23005466 159.82001009 237.9609375 197.203125 C238.0633374 197.85619629 238.1657373 198.50926758 238.27124023 199.18212891 C245.81217648 255.48507608 228.03771614 314.73127411 193.95825195 359.5559082 C188.86562343 366.13256546 183.36593586 372.2730978 177.65625 378.31640625 C175.5410879 380.58177551 173.5497765 382.87250461 171.5859375 385.265625 C166.38304562 391.26026129 160.05936017 396.15956463 153.9609375 401.203125 C153.35685059 401.70924316 152.75276367 402.21536133 152.13037109 402.73681641 C131.69701749 419.82603031 105.53185779 439.203125 77.9609375 439.203125 C77.9609375 431.943125 77.9609375 424.683125 77.9609375 417.203125 C84.9609375 415.203125 84.9609375 415.203125 87.7734375 414.453125 C90.2211047 413.34928981 90.2211047 413.34928981 91.08644104 410.51159668 C91.97021172 407.16803795 92.18459027 404.46601132 92.14038086 401.01757812 C92.13054672 399.81613159 92.12071259 398.61468506 92.11058044 397.37683105 C92.08097984 395.45006531 92.08097984 395.45006531 92.05078125 393.484375 C92.03941541 392.13969964 92.02939214 390.79501233 92.02064514 389.45031738 C91.98107401 383.76271295 91.91585745 378.07546814 91.84448242 372.38818359 C91.80164087 368.89943737 91.77362585 365.41081056 91.75418282 361.92185974 C91.73856518 359.95758548 91.7056166 357.99347355 91.67234802 356.02941895 C91.66566605 354.82797241 91.65898407 353.62652588 91.65209961 352.38867188 C91.63305824 350.81031555 91.63305824 350.81031555 91.6136322 349.20007324 C92.33208588 343.00043133 95.39300948 339.38515074 100.0234375 335.61328125 C101.84731171 334.28582441 103.68616435 333.18599172 105.6484375 332.078125 C119.18653041 323.86606476 129.51681587 308.77769973 136.9609375 295.203125 C137.52554687 294.17960937 138.09015625 293.15609375 138.671875 292.1015625 C156.57608798 258.09137628 159.76857432 217.18184972 148.71582031 180.55371094 C137.66303552 146.13708353 113.00980118 116.77673114 81.02294922 99.96655273 C46.71982253 82.58043809 6.14490387 78.35219542 -30.66015625 90.22265625 C-34.1713025 91.42739817 -37.60848128 92.78699408 -41.0390625 94.203125 C-41.73451172 94.48639648 -42.42996094 94.76966797 -43.14648438 95.06152344 C-60.49290234 102.26928664 -74.67650109 113.15961351 -88.0390625 126.203125 C-88.750625 126.84121094 -89.4621875 127.47929688 -90.1953125 128.13671875 C-112.18931628 148.37300502 -125.89965785 182.79287786 -127.16455078 212.11181641 C-128.03416934 241.07142553 -124.22755112 267.66806615 -110.0390625 293.203125 C-109.44996094 294.29367187 -108.86085938 295.38421875 -108.25390625 296.5078125 C-102.25460918 307.24915076 -94.37985069 316.22191066 -86.0390625 325.203125 C-85.48863281 325.80769531 -84.93820313 326.41226562 -84.37109375 327.03515625 C-70.60882342 341.5450067 -52.42835971 350.93018752 -34.0390625 358.203125 C-32.92517723 367.55159914 -32.90927089 376.85029308 -32.94140625 386.24609375 C-32.94327542 387.86704972 -32.94469696 389.48800627 -32.94569397 391.10896301 C-32.94947986 395.33881234 -32.95927577 399.56862636 -32.97039795 403.79846191 C-32.98069735 408.1293083 -32.98520972 412.46016048 -32.99023438 416.79101562 C-33.00090226 425.2617348 -33.01793044 433.73242549 -33.0390625 442.203125 C-32.44738281 442.26371094 -31.85570312 442.32429688 -31.24609375 442.38671875 C-30.45589844 442.47050781 -29.66570312 442.55429687 -28.8515625 442.640625 C-28.07425781 442.72183594 -27.29695312 442.80304688 -26.49609375 442.88671875 C-23.99265464 443.20910121 -21.51415726 443.70810605 -19.0390625 444.203125 C-18.5440625 404.603125 -18.5440625 404.603125 -18.0390625 364.203125 C-10.36050945 364.71502854 -2.67523373 365.2486036 4.9609375 366.203125 C13.2109375 366.533125 21.4609375 366.863125 29.9609375 367.203125 C29.9609375 393.933125 29.9609375 420.663125 29.9609375 448.203125 C27.08921669 449.6389854 24.61310679 449.33295279 21.40625 449.3359375 C20.74946259 449.33689423 20.09267517 449.33785095 19.41598511 449.33883667 C18.0188589 449.33951823 16.62172953 449.33766564 15.22460938 449.33349609 C13.12882948 449.32823272 11.03327243 449.33339675 8.9375 449.33984375 C-12.74115191 449.3520803 -12.74115191 449.3520803 -17.0390625 447.203125 C-17.03018005 447.94370651 -17.02129761 448.68428802 -17.012146 449.4473114 C-16.93190785 456.43583306 -16.87105126 463.42428563 -16.83181381 470.41314983 C-16.8109628 474.00602093 -16.78269201 477.59851055 -16.73730469 481.19116211 C-16.69375609 484.66008552 -16.66990669 488.12864265 -16.65955353 491.59781837 C-16.6485953 493.56156633 -16.61738325 495.52516747 -16.58587646 497.48869324 C-16.58557434 498.6895607 -16.58527222 499.89042816 -16.58496094 501.12768555 C-16.57607849 502.18247604 -16.56719604 503.23726654 -16.55804443 504.32402039 C-17.16231746 507.94086014 -18.49284874 509.61156465 -21.0390625 512.203125 C-23.4765625 512.8671875 -23.4765625 512.8671875 -26.0390625 512.828125 C-26.8846875 512.84101562 -27.7303125 512.85390625 -28.6015625 512.8671875 C-32.24834902 511.87367194 -33.09516462 510.4452337 -35.0390625 507.203125 C-35.6026821 503.64019031 -35.52793818 500.12339481 -35.46484375 496.5234375 C-35.45991158 494.95600296 -35.45991158 494.95600296 -35.45487976 493.35690308 C-35.43914933 490.01355595 -35.39518265 486.67121187 -35.3515625 483.328125 C-35.34006411 481.11719583 -35.33028104 478.90625704 -35.32226562 476.6953125 C-35.25854163 465.49809542 -35.00588088 454.36186786 -34.0390625 443.203125 C-34.80565186 443.16775635 -35.57224121 443.1323877 -36.36206055 443.09594727 C-72.86691489 441.19278892 -108.5171098 417.82835379 -135.0390625 394.203125 C-135.97032959 393.37458008 -135.97032959 393.37458008 -136.92041016 392.52929688 C-145.04182462 385.25153373 -152.34478878 377.84131282 -159.0390625 369.203125 C-160.49691137 367.49437822 -161.95525816 365.78605614 -163.4140625 364.078125 C-169.28360679 356.88946709 -174.19770779 349.1056615 -179.0390625 341.203125 C-179.44157227 340.54683105 -179.84408203 339.89053711 -180.25878906 339.21435547 C-195.54428142 313.96313279 -204.09660691 286.14814643 -209.0390625 257.203125 C-209.17183594 256.45853027 -209.30460937 255.71393555 -209.44140625 254.94677734 C-218.64525025 201.64979868 -203.10611955 141.81461428 -172.20898438 97.91186523 C-170.83342818 95.99787017 -169.44147015 94.09751832 -168.0390625 92.203125 C-167.38019043 91.30883789 -167.38019043 91.30883789 -166.70800781 90.39648438 C-159.49532134 80.69758649 -151.41580538 71.90122631 -143.0390625 63.203125 C-142.28625 62.4090625 -141.5334375 61.615 -140.7578125 60.796875 C-105.83442041 24.72845366 -50.25483419 0.28450678 0 0 Z " fill="#FFFFFF" transform="translate(242.0390625,-0.203125)"/>
<path d="M0 0 C0.68400879 0.1556543 1.36801758 0.31130859 2.07275391 0.47167969 C34.19589076 8.05767618 62.93564305 28.21340981 80.61328125 56.0390625 C89.98113687 71.29539257 96.03131261 87.35395609 99 105 C99.13277344 105.72445312 99.26554687 106.44890625 99.40234375 107.1953125 C104.7872053 141.27484727 92.6449305 177.4005947 72.98022461 204.76708984 C66.74832279 213.20849479 60.4054395 221.05953486 51 226 C50.1913533 216.96070539 49.83152556 207.9870221 49.75390625 198.9140625 C49.72938888 196.92673163 49.70486026 194.93940082 49.67970943 192.95207787 C49.61978594 188.12796087 49.56842761 183.30376796 49.52319336 178.47949219 C49.49726283 175.75181922 49.4663436 173.02428179 49.43040466 170.29672241 C49.39720488 167.75337292 49.37100725 165.20991765 49.35340881 162.66641235 C49.06500343 142.24870744 45.84161861 120.39916043 31.1875 105.0234375 C21.71223233 96.2588149 9.14671104 88.63613118 -4 88 C-7.54515882 88.39553723 -7.54515882 88.39553723 -10 90 C-11.14731321 93.12941354 -11.13390602 96.18215384 -11.15148926 99.48933411 C-11.15983292 100.60591904 -11.16817657 101.72250397 -11.17677307 102.8729248 C-11.1830497 104.70470276 -11.1830497 104.70470276 -11.18945312 106.57348633 C-11.20218625 108.55427913 -11.21491939 110.53507193 -11.2276535 112.51586473 C-11.24039648 114.64609278 -11.2507215 116.77632047 -11.26036072 118.90656471 C-11.28067547 123.37009433 -11.30832769 127.83356043 -11.33703613 132.29704285 C-11.39202997 140.99728082 -11.44008865 149.69754987 -11.48697662 158.39783478 C-11.54632689 169.40197159 -11.60733293 180.40609049 -11.67754889 191.41016406 C-11.70092778 195.1080422 -11.72251832 198.80591142 -11.73963928 202.50382423 C-11.80316219 216.15076861 -11.8953857 229.79094233 -12.45507812 243.4284668 C-12.49324394 244.39504369 -12.53140976 245.36162058 -12.57073212 246.35748768 C-12.6112394 247.22655089 -12.65174667 248.09561411 -12.69348145 248.99101257 C-12.72834908 249.74659801 -12.76321671 250.50218344 -12.79914093 251.2806654 C-13 253 -13 253 -14 254 C-29.25083968 255.75154655 -45.1499507 255.1816845 -60 251 C-61 250 -61 250 -61.12025452 248.09544373 C-61.11803391 247.26271439 -61.11581329 246.42998505 -61.11352539 245.57202148 C-61.11341209 244.16067177 -61.11341209 244.16067177 -61.11329651 242.72080994 C-61.10555458 241.18645042 -61.10555458 241.18645042 -61.09765625 239.62109375 C-61.0962413 238.57929459 -61.09482635 237.53749542 -61.09336853 236.46412659 C-61.0877508 233.12188906 -61.0751953 229.77971743 -61.0625 226.4375 C-61.05748728 224.17773534 -61.05292398 221.91796963 -61.04882812 219.65820312 C-61.03777561 214.10544609 -61.02102024 208.55272775 -61 203 C-47 196 -47 196 -44.61352539 194.89160156 C-42.41323144 193.67576354 -42.00368858 192.26774826 -41 190 C-40.04388449 188.73228138 -39.06340288 187.4826641 -38.0625 186.25 C-29.76462352 175.3008508 -30.8385 162.14521223 -30.83203125 149.01953125 C-30.82881204 147.47735057 -30.82544748 145.93517018 -30.82194519 144.39299011 C-30.81598826 141.1764556 -30.81410198 137.95994783 -30.81469727 134.7434082 C-30.81479925 130.63122774 -30.80109421 126.51921852 -30.78392506 122.40707874 C-30.77279097 119.2285636 -30.77077841 116.05008988 -30.77130699 112.87155724 C-30.77013104 111.35536796 -30.76573099 109.83917747 -30.75797462 108.32300758 C-30.74813623 106.20325348 -30.7510666 104.0838719 -30.75708008 101.96411133 C-30.75565506 100.76103836 -30.75423004 99.55796539 -30.75276184 98.31843567 C-31.00885967 94.88108537 -31.67289102 92.17515871 -33 89 C-35.59006257 87.57099996 -36.82898333 87.95625155 -39.6875 88.6875 C-42.11211495 89.73390347 -42.11211495 89.73390347 -42.62695312 91.71313477 C-43.07470682 94.45797043 -43.19998198 97.12172401 -43.28125 99.90234375 C-43.31863281 101.03994141 -43.35601562 102.17753906 -43.39453125 103.34960938 C-43.42933594 104.53361328 -43.46414062 105.71761719 -43.5 106.9375 C-43.56908709 109.28006399 -43.64186566 111.6225227 -43.71875 113.96484375 C-43.74904297 115.0024585 -43.77933594 116.04007324 -43.81054688 117.10913086 C-44 120 -44 120 -45 125 C-50.28 125 -55.56 125 -61 125 C-61.76252281 121.18738596 -62.15296616 118.07966301 -62.24609375 114.25390625 C-62.27896484 113.16916016 -62.31183594 112.08441406 -62.34570312 110.96679688 C-62.40679303 108.70127111 -62.46409831 106.43564006 -62.51757812 104.16992188 C-62.6804835 96.37609724 -62.6804835 96.37609724 -65 89 C-67.59006257 87.57099996 -68.82898333 87.95625155 -71.6875 88.6875 C-74.11211495 89.73390347 -74.11211495 89.73390347 -74.62695312 91.71313477 C-75.07470682 94.45797043 -75.19998198 97.12172401 -75.28125 99.90234375 C-75.31863281 101.03994141 -75.35601562 102.17753906 -75.39453125 103.34960938 C-75.42933594 104.53361328 -75.46414062 105.71761719 -75.5 106.9375 C-75.56908709 109.28006399 -75.64186566 111.6225227 -75.71875 113.96484375 C-75.74904297 115.0024585 -75.77933594 116.04007324 -75.81054688 117.10913086 C-76 120 -76 120 -77 125 C-82.28 125 -87.56 125 -93 125 C-93.76252281 121.18738596 -94.15296616 118.07966301 -94.24609375 114.25390625 C-94.27896484 113.16916016 -94.31183594 112.08441406 -94.34570312 110.96679688 C-94.40679303 108.70127111 -94.46409831 106.43564006 -94.51757812 104.16992188 C-94.6804835 96.37609724 -94.6804835 96.37609724 -97 89 C-99.59006257 87.57099996 -100.82898333 87.95625155 -103.6875 88.6875 C-106.10234607 89.73285706 -106.10234607 89.73285706 -106.63446045 91.67364502 C-107.10210382 94.64980583 -107.14352408 97.52038508 -107.16113281 100.53417969 C-107.16609772 101.18205948 -107.17106262 101.82993927 -107.17617798 102.49745178 C-107.19076431 104.63893717 -107.19760112 106.7803481 -107.203125 108.921875 C-107.20595238 109.65948311 -107.20877975 110.39709122 -107.21169281 111.15705109 C-107.22668305 115.07231502 -107.23590933 118.98754224 -107.24023438 122.90283203 C-107.24567154 126.90327292 -107.26959754 130.90336521 -107.29820633 134.90369797 C-107.31706534 138.01486092 -107.32205081 141.12594451 -107.32357025 144.23715973 C-107.32655306 145.7088127 -107.33442875 147.18046581 -107.34775543 148.65206146 C-107.46692418 162.84214031 -106.33852877 176.50270347 -99 189 C-98.70222656 189.70640625 -98.40445313 190.4128125 -98.09765625 191.140625 C-96.94296201 193.48092084 -96.94296201 193.48092084 -93 195 C-87.72 197.64 -82.44 200.28 -77 203 C-77 216.53 -77 230.06 -77 244 C-83.77663423 241.96700973 -89.07998483 240.26348292 -95 236.8125 C-95.68787598 236.41740234 -96.37575195 236.02230469 -97.08447266 235.61523438 C-102.8367355 232.23870065 -107.99160515 228.40909974 -113 224 C-113.80566406 223.32582031 -114.61132812 222.65164063 -115.44140625 221.95703125 C-126.42107945 212.52379089 -134.9491123 201.60754754 -142 189 C-142.79857422 187.58847656 -142.79857422 187.58847656 -143.61328125 186.1484375 C-153.03467471 168.47419551 -157.2101119 148.89530664 -158 129 C-158.04125 128.18789062 -158.0825 127.37578125 -158.125 126.5390625 C-159.00328897 94.37172914 -146.68261551 64.20306071 -126 40 C-125.30261719 39.16855469 -124.60523438 38.33710938 -123.88671875 37.48046875 C-93.74526772 2.62774295 -44.19463643 -10.37062007 0 0 Z " fill="#FFFFFF" transform="translate(285,99)"/>
<path d="M0 0 C6.88141206 2.29380402 11.37906684 5.54428218 17 10 C17.66644531 10.52464844 18.33289063 11.04929688 19.01953125 11.58984375 C27.97582186 19.53526634 32.40473473 32.03259859 33.18155479 43.73504066 C33.25104952 46.71037435 33.25904186 49.67941723 33.24291992 52.65551758 C33.24481827 53.77772705 33.24671661 54.89993652 33.24867249 56.05615234 C33.25236293 59.7523508 33.24168179 63.4483503 33.23046875 67.14453125 C33.22927352 69.75445025 33.22882451 72.36436968 33.2290802 74.97428894 C33.22814517 80.4557841 33.21950437 85.93722379 33.20581055 91.41870117 C33.19199777 96.96623841 33.18478227 102.51372463 33.18530273 108.0612793 C33.1879132 138.39215854 33.01298 168.68353465 32 199 C21.44 199 10.88 199 0 199 C0 133.33 0 67.66 0 0 Z " fill="#FFFFFF" transform="translate(288,202)"/>
<path d="M0 0 C15.84 0 31.68 0 48 0 C49.10211236 5.51056181 49.22143098 10.59154409 49.25 16.1875 C49.270625 17.17814453 49.29125 18.16878906 49.3125 19.18945312 C49.35490317 27.27255816 48.25771455 34.37397361 43.9375 41.3125 C38.07618348 46.67498107 31.41339588 49.71720726 23.44140625 50.12890625 C15.90179415 49.73081473 9.28129501 46.34103816 4 41 C0.38177602 35.57266402 -1.124717 30.2804961 -1.1328125 23.7890625 C-1.13410156 22.79132813 -1.13539063 21.79359375 -1.13671875 20.765625 C-1.13285156 19.72921875 -1.12898437 18.6928125 -1.125 17.625 C-1.12886719 16.59632813 -1.13273438 15.56765625 -1.13671875 14.5078125 C-1.13542969 13.5075 -1.13414062 12.5071875 -1.1328125 11.4765625 C-1.13168457 10.56986816 -1.13055664 9.66317383 -1.12939453 8.72900391 C-1 6 -1 6 0 0 Z " fill="#FFFFFF" transform="translate(192,240)"/>
<path d="M0 0 C5.28 0 10.56 0 16 0 C17.09628386 17.2768785 17.1877715 34.54065334 17.18530273 51.84448242 C17.18519949 55.81975328 17.19906119 59.79485197 17.21607494 63.77008152 C17.22716924 66.8592765 17.22922305 69.94842866 17.22869301 73.03764153 C17.2298689 74.50524447 17.23426864 75.97284867 17.24202538 77.44043159 C17.25181026 79.47531956 17.24768686 81.5102601 17.24291992 83.54516602 C17.24434494 84.69872086 17.24576996 85.8522757 17.24723816 87.04078674 C17.0048365 89.9421115 16.60692286 91.59780134 15 94 C12.54617866 95.22691067 10.80015897 95.20175931 8.0625 95.25 C7.18722656 95.27578125 6.31195313 95.3015625 5.41015625 95.328125 C3 95 3 95 1.24609375 93.671875 C-1.35167889 90.18646218 -1.12652174 86.82707219 -1.12939453 82.64282227 C-1.13254669 81.32617081 -1.13569885 80.00951935 -1.13894653 78.65296936 C-1.1371535 77.20744799 -1.13510175 75.76192692 -1.1328125 74.31640625 C-1.13348717 72.82160934 -1.13445856 71.32681253 -1.13571167 69.83201599 C-1.13718867 66.68544479 -1.13503915 63.5389019 -1.13037109 60.39233398 C-1.12475646 56.4197794 -1.12798556 52.44729304 -1.13382339 48.47474098 C-1.1538902 32.28417723 -1.02306042 16.16597853 0 0 Z " fill="#FFFFFF" transform="translate(288,417)"/>
</svg>
