<svg xmlns="http://www.w3.org/2000/svg" xmlns:xlink="http://www.w3.org/1999/xlink" width="500" zoomAndPan="magnify" viewBox="0 0 375 374.999991" height="500" preserveAspectRatio="xMidYMid meet" version="1.0"><defs><g/><clipPath id="695931c54a"><path d="M 3.386719 3.386719 L 371.613281 3.386719 L 371.613281 371.613281 L 3.386719 371.613281 Z M 3.386719 3.386719 " clip-rule="nonzero"/></clipPath><clipPath id="b4577faf68"><path d="M 187.5 3.386719 C 85.816406 3.386719 3.386719 85.816406 3.386719 187.5 C 3.386719 289.183594 85.816406 371.613281 187.5 371.613281 C 289.183594 371.613281 371.613281 289.183594 371.613281 187.5 C 371.613281 85.816406 289.183594 3.386719 187.5 3.386719 Z M 187.5 3.386719 " clip-rule="nonzero"/></clipPath><clipPath id="e22c462941"><path d="M 3.386719 3.386719 L 371.636719 3.386719 L 371.636719 371.636719 L 3.386719 371.636719 Z M 3.386719 3.386719 " clip-rule="nonzero"/></clipPath><clipPath id="3de4e2410c"><path d="M 187.496094 3.386719 C 85.816406 3.386719 3.386719 85.816406 3.386719 187.496094 C 3.386719 289.175781 85.816406 371.601562 187.496094 371.601562 C 289.175781 371.601562 371.601562 289.175781 371.601562 187.496094 C 371.601562 85.816406 289.175781 3.386719 187.496094 3.386719 Z M 187.496094 3.386719 " clip-rule="nonzero"/></clipPath><clipPath id="035b5a1c57"><path d="M 61.863281 70.636719 L 328.863281 70.636719 L 328.863281 337.636719 L 61.863281 337.636719 Z M 61.863281 70.636719 " clip-rule="nonzero"/></clipPath><clipPath id="0b196c4160"><path d="M 22 160 L 144 160 L 144 236 L 22 236 Z M 22 160 " clip-rule="nonzero"/></clipPath><clipPath id="52fa1a9361"><path d="M 31.617188 142.09375 L 149.570312 164.167969 L 134.667969 243.785156 L 16.714844 221.710938 Z M 31.617188 142.09375 " clip-rule="nonzero"/></clipPath><clipPath id="364606d15e"><path d="M 31.617188 142.09375 L 149.570312 164.167969 L 134.667969 243.785156 L 16.714844 221.710938 Z M 31.617188 142.09375 " clip-rule="nonzero"/></clipPath><clipPath id="8a4968a04d"><path d="M 143.757812 182.886719 C 144.777344 173.050781 138.222656 163.835938 128.632812 161.507812 C 121.226562 159.6875 113.875 162.234375 109.128906 167.398438 C 106.761719 169.957031 102.933594 170.5 99.859375 168.808594 C 97.488281 167.496094 94.816406 166.511719 92.011719 165.984375 C 83.777344 164.445312 75.710938 166.90625 69.8125 172.046875 C 66.394531 175.039062 61.605469 175.792969 57.339844 174.265625 C 55.480469 173.578125 53.488281 173.109375 51.449219 172.875 C 38.230469 171.320312 25.839844 180.089844 22.835938 193.039062 C 19.402344 207.746094 28.957031 222.171875 43.644531 224.921875 C 49.726562 226.058594 55.6875 224.996094 60.734375 222.355469 C 65.835938 219.679688 72.070312 221.039062 75.570312 225.617188 C 79.660156 230.933594 85.777344 234.742188 93.050781 235.714844 C 106.421875 237.492188 119.167969 228.644531 122.160156 215.5 C 122.496094 213.964844 122.71875 212.503906 122.8125 210.972656 C 123.09375 205.84375 126.25 201.398438 131.054688 199.539062 C 137.78125 196.972656 142.960938 190.773438 143.757812 182.886719 Z M 143.757812 182.886719 " clip-rule="nonzero"/></clipPath><clipPath id="0563cb7e6d"><path d="M 53 160 L 66 160 L 66 172 L 53 172 Z M 53 160 " clip-rule="nonzero"/></clipPath><clipPath id="4cffcad0cf"><path d="M 31.617188 142.09375 L 149.570312 164.167969 L 134.667969 243.785156 L 16.714844 221.710938 Z M 31.617188 142.09375 " clip-rule="nonzero"/></clipPath><clipPath id="e84f0b24a7"><path d="M 31.617188 142.09375 L 149.570312 164.167969 L 134.667969 243.785156 L 16.714844 221.710938 Z M 31.617188 142.09375 " clip-rule="nonzero"/></clipPath><clipPath id="93d31bcf02"><path d="M 64.972656 167.367188 C 64.90625 167.730469 64.800781 168.085938 64.664062 168.433594 C 64.523438 168.777344 64.355469 169.105469 64.152344 169.417969 C 63.949219 169.730469 63.714844 170.019531 63.457031 170.285156 C 63.195312 170.550781 62.914062 170.789062 62.605469 170.996094 C 62.300781 171.207031 61.976562 171.386719 61.632812 171.53125 C 61.289062 171.679688 60.9375 171.789062 60.574219 171.867188 C 60.210938 171.945312 59.84375 171.984375 59.46875 171.988281 C 59.097656 171.992188 58.730469 171.960938 58.363281 171.890625 C 58 171.824219 57.644531 171.71875 57.296875 171.582031 C 56.953125 171.441406 56.625 171.273438 56.3125 171.070312 C 56 170.867188 55.710938 170.632812 55.445312 170.375 C 55.179688 170.113281 54.941406 169.832031 54.734375 169.523438 C 54.523438 169.21875 54.34375 168.894531 54.199219 168.550781 C 54.050781 168.210938 53.941406 167.855469 53.863281 167.492188 C 53.789062 167.128906 53.746094 166.761719 53.742188 166.386719 C 53.738281 166.015625 53.769531 165.648438 53.839844 165.28125 C 53.90625 164.917969 54.011719 164.5625 54.148438 164.214844 C 54.289062 163.871094 54.457031 163.542969 54.660156 163.230469 C 54.863281 162.917969 55.097656 162.632812 55.355469 162.363281 C 55.617188 162.097656 55.898438 161.859375 56.207031 161.652344 C 56.511719 161.441406 56.835938 161.261719 57.179688 161.117188 C 57.519531 160.96875 57.875 160.859375 58.238281 160.78125 C 58.601562 160.707031 58.96875 160.664062 59.34375 160.660156 C 59.714844 160.65625 60.082031 160.6875 60.449219 160.757812 C 60.8125 160.824219 61.167969 160.929688 61.515625 161.066406 C 61.859375 161.207031 62.1875 161.375 62.5 161.578125 C 62.8125 161.78125 63.101562 162.015625 63.367188 162.273438 C 63.632812 162.535156 63.871094 162.816406 64.078125 163.125 C 64.289062 163.429688 64.46875 163.753906 64.613281 164.097656 C 64.761719 164.441406 64.871094 164.792969 64.949219 165.15625 C 65.023438 165.519531 65.066406 165.886719 65.070312 166.261719 C 65.074219 166.632812 65.042969 167 64.972656 167.367188 Z M 64.972656 167.367188 " clip-rule="nonzero"/></clipPath><clipPath id="c9bf06e2ba"><path d="M 89 153 L 96 153 L 96 161 L 89 161 Z M 89 153 " clip-rule="nonzero"/></clipPath><clipPath id="daf14add93"><path d="M 31.617188 142.09375 L 149.570312 164.167969 L 134.667969 243.785156 L 16.714844 221.710938 Z M 31.617188 142.09375 " clip-rule="nonzero"/></clipPath><clipPath id="a67ca2cfb8"><path d="M 31.617188 142.09375 L 149.570312 164.167969 L 134.667969 243.785156 L 16.714844 221.710938 Z M 31.617188 142.09375 " clip-rule="nonzero"/></clipPath><clipPath id="51835a79ff"><path d="M 95.910156 157.5625 C 95.828125 158.003906 95.664062 158.414062 95.417969 158.789062 C 95.175781 159.164062 94.867188 159.476562 94.5 159.730469 C 94.128906 159.984375 93.722656 160.15625 93.285156 160.25 C 92.847656 160.339844 92.40625 160.347656 91.96875 160.265625 C 91.527344 160.179688 91.117188 160.019531 90.742188 159.773438 C 90.367188 159.527344 90.054688 159.222656 89.800781 158.851562 C 89.546875 158.480469 89.375 158.078125 89.28125 157.640625 C 89.191406 157.199219 89.183594 156.761719 89.265625 156.320312 C 89.347656 155.878906 89.511719 155.472656 89.757812 155.097656 C 90.003906 154.722656 90.308594 154.40625 90.679688 154.152344 C 91.050781 153.902344 91.453125 153.726562 91.890625 153.636719 C 92.332031 153.542969 92.769531 153.539062 93.210938 153.621094 C 93.652344 153.703125 94.058594 153.867188 94.433594 154.109375 C 94.808594 154.355469 95.125 154.664062 95.378906 155.03125 C 95.628906 155.402344 95.804688 155.808594 95.894531 156.246094 C 95.988281 156.683594 95.992188 157.125 95.910156 157.5625 Z M 95.910156 157.5625 " clip-rule="nonzero"/></clipPath><clipPath id="ac7c21fa79"><path d="M 130 206 L 141 206 L 141 217 L 130 217 Z M 130 206 " clip-rule="nonzero"/></clipPath><clipPath id="267a5f56b4"><path d="M 31.617188 142.09375 L 149.570312 164.167969 L 134.667969 243.785156 L 16.714844 221.710938 Z M 31.617188 142.09375 " clip-rule="nonzero"/></clipPath><clipPath id="fd0870b1d6"><path d="M 31.617188 142.09375 L 149.570312 164.167969 L 134.667969 243.785156 L 16.714844 221.710938 Z M 31.617188 142.09375 " clip-rule="nonzero"/></clipPath><clipPath id="51a83c6b75"><path d="M 140.683594 212.527344 C 140.617188 212.871094 140.519531 213.203125 140.390625 213.53125 C 140.257812 213.855469 140.097656 214.164062 139.90625 214.457031 C 139.714844 214.75 139.5 215.023438 139.253906 215.273438 C 139.007812 215.523438 138.742188 215.746094 138.453125 215.945312 C 138.164062 216.140625 137.859375 216.308594 137.539062 216.445312 C 137.214844 216.585938 136.882812 216.691406 136.542969 216.761719 C 136.199219 216.832031 135.851562 216.871094 135.503906 216.875 C 135.152344 216.878906 134.804688 216.851562 134.460938 216.785156 C 134.117188 216.722656 133.78125 216.625 133.457031 216.492188 C 133.132812 216.363281 132.824219 216.203125 132.53125 216.011719 C 132.238281 215.820312 131.964844 215.601562 131.714844 215.355469 C 131.464844 215.113281 131.242188 214.847656 131.042969 214.558594 C 130.847656 214.269531 130.679688 213.964844 130.539062 213.640625 C 130.402344 213.320312 130.296875 212.988281 130.226562 212.644531 C 130.152344 212.300781 130.117188 211.957031 130.113281 211.605469 C 130.109375 211.253906 130.136719 210.910156 130.203125 210.566406 C 130.265625 210.21875 130.363281 209.886719 130.496094 209.5625 C 130.625 209.238281 130.785156 208.925781 130.976562 208.632812 C 131.167969 208.339844 131.386719 208.070312 131.628906 207.820312 C 131.875 207.570312 132.140625 207.34375 132.429688 207.148438 C 132.71875 206.949219 133.023438 206.78125 133.347656 206.644531 C 133.667969 206.507812 134 206.402344 134.34375 206.328125 C 134.683594 206.257812 135.03125 206.21875 135.382812 206.214844 C 135.730469 206.210938 136.078125 206.242188 136.421875 206.304688 C 136.765625 206.371094 137.101562 206.46875 137.425781 206.597656 C 137.75 206.726562 138.058594 206.886719 138.351562 207.078125 C 138.648438 207.269531 138.917969 207.488281 139.167969 207.734375 C 139.417969 207.976562 139.644531 208.246094 139.839844 208.535156 C 140.039062 208.824219 140.207031 209.128906 140.34375 209.449219 C 140.480469 209.769531 140.585938 210.105469 140.660156 210.445312 C 140.730469 210.789062 140.769531 211.136719 140.773438 211.484375 C 140.777344 211.835938 140.746094 212.183594 140.683594 212.527344 Z M 140.683594 212.527344 " clip-rule="nonzero"/></clipPath></defs><rect x="-37.5" width="450" fill="#ffffff" y="-37.499999" height="449.999989" fill-opacity="1"/><rect x="-37.5" width="450" fill="#000000" y="-37.499999" height="449.999989" fill-opacity="1"/><g clip-path="url(#695931c54a)"><g clip-path="url(#b4577faf68)"><path fill="#000000" d="M 3.386719 3.386719 L 371.613281 3.386719 L 371.613281 371.613281 L 3.386719 371.613281 Z M 3.386719 3.386719 " fill-opacity="1" fill-rule="nonzero"/></g></g><g clip-path="url(#e22c462941)"><g clip-path="url(#3de4e2410c)"><path stroke-linecap="butt" transform="matrix(0.75, 0, 0, 0.75, 3.38728, 3.387276)" fill="none" stroke-linejoin="miter" d="M 245.47845 -0.000742512 C 109.905516 -0.000742512 -0.000748512 109.905522 -0.000748512 245.478456 C -0.000748512 381.05139 109.905516 490.952446 245.47845 490.952446 C 381.051384 490.952446 490.95244 381.05139 490.95244 245.478456 C 490.95244 109.905522 381.051384 -0.000742512 245.47845 -0.000742512 Z M 245.47845 -0.000742512 " stroke="#f2f3f0" stroke-width="28" stroke-opacity="1" stroke-miterlimit="4"/></g></g><g clip-path="url(#035b5a1c57)"><path fill="#000000" d="M 328.722656 204.066406 C 328.722656 206.25 328.667969 208.433594 328.5625 210.617188 C 328.457031 212.796875 328.292969 214.972656 328.082031 217.148438 C 327.867188 219.320312 327.597656 221.488281 327.277344 223.644531 C 326.957031 225.804688 326.585938 227.957031 326.160156 230.097656 C 325.734375 232.242188 325.253906 234.371094 324.722656 236.488281 C 324.195312 238.605469 323.613281 240.710938 322.976562 242.800781 C 322.34375 244.890625 321.660156 246.964844 320.921875 249.019531 C 320.1875 251.074219 319.402344 253.113281 318.566406 255.128906 C 317.730469 257.148438 316.847656 259.144531 315.914062 261.117188 C 314.980469 263.089844 313.996094 265.039062 312.96875 266.964844 C 311.9375 268.890625 310.863281 270.792969 309.738281 272.664062 C 308.617188 274.539062 307.449219 276.382812 306.234375 278.199219 C 305.023438 280.011719 303.765625 281.796875 302.464844 283.550781 C 301.164062 285.304688 299.820312 287.027344 298.4375 288.714844 C 297.050781 290.402344 295.625 292.054688 294.160156 293.675781 C 292.691406 295.292969 291.1875 296.875 289.644531 298.417969 C 288.097656 299.960938 286.515625 301.464844 284.898438 302.933594 C 283.28125 304.398438 281.628906 305.824219 279.941406 307.210938 C 278.253906 308.597656 276.53125 309.9375 274.777344 311.238281 C 273.023438 312.539062 271.238281 313.796875 269.421875 315.011719 C 267.609375 316.222656 265.761719 317.390625 263.890625 318.515625 C 262.015625 319.636719 260.117188 320.714844 258.191406 321.742188 C 256.265625 322.773438 254.316406 323.753906 252.34375 324.6875 C 250.367188 325.621094 248.371094 326.503906 246.355469 327.339844 C 244.335938 328.175781 242.300781 328.960938 240.246094 329.699219 C 238.1875 330.433594 236.117188 331.117188 234.027344 331.753906 C 231.9375 332.386719 229.832031 332.96875 227.714844 333.5 C 225.597656 334.03125 223.464844 334.507812 221.324219 334.933594 C 219.183594 335.359375 217.03125 335.734375 214.871094 336.054688 C 212.710938 336.375 210.546875 336.640625 208.371094 336.855469 C 206.199219 337.070312 204.023438 337.230469 201.839844 337.335938 C 199.660156 337.445312 197.476562 337.496094 195.292969 337.496094 C 193.109375 337.496094 190.925781 337.445312 188.746094 337.335938 C 186.566406 337.230469 184.386719 337.070312 182.214844 336.855469 C 180.042969 336.640625 177.875 336.375 175.714844 336.054688 C 173.554688 335.734375 171.40625 335.359375 169.261719 334.933594 C 167.121094 334.507812 164.992188 334.03125 162.871094 333.5 C 160.753906 332.96875 158.652344 332.386719 156.5625 331.753906 C 154.472656 331.117188 152.398438 330.433594 150.34375 329.699219 C 148.285156 328.960938 146.25 328.175781 144.230469 327.339844 C 142.214844 326.503906 140.21875 325.621094 138.246094 324.6875 C 136.269531 323.753906 134.320312 322.773438 132.394531 321.742188 C 130.46875 320.714844 128.570312 319.636719 126.695312 318.515625 C 124.824219 317.390625 122.980469 316.222656 121.164062 315.011719 C 119.347656 313.796875 117.5625 312.539062 115.808594 311.238281 C 114.054688 309.9375 112.335938 308.597656 110.648438 307.210938 C 108.957031 305.824219 107.304688 304.398438 105.6875 302.933594 C 104.070312 301.464844 102.488281 299.960938 100.945312 298.417969 C 99.402344 296.875 97.894531 295.292969 96.429688 293.675781 C 94.960938 292.054688 93.535156 290.402344 92.152344 288.714844 C 90.765625 287.027344 89.421875 285.304688 88.121094 283.550781 C 86.820312 281.796875 85.5625 280.011719 84.351562 278.199219 C 83.136719 276.382812 81.96875 274.539062 80.847656 272.664062 C 79.722656 270.792969 78.648438 268.890625 77.617188 266.964844 C 76.589844 265.039062 75.609375 263.089844 74.675781 261.117188 C 73.742188 259.144531 72.855469 257.148438 72.019531 255.128906 C 71.183594 253.113281 70.398438 251.074219 69.664062 249.019531 C 68.929688 246.964844 68.242188 244.890625 67.609375 242.800781 C 66.976562 240.710938 66.394531 238.605469 65.863281 236.488281 C 65.332031 234.371094 64.855469 232.242188 64.425781 230.097656 C 64 227.957031 63.628906 225.804688 63.308594 223.644531 C 62.988281 221.488281 62.71875 219.320312 62.507812 217.148438 C 62.292969 214.972656 62.132812 212.796875 62.023438 210.617188 C 61.917969 208.433594 61.863281 206.25 61.863281 204.066406 C 61.863281 201.882812 61.917969 199.703125 62.023438 197.519531 C 62.132812 195.339844 62.292969 193.164062 62.507812 190.988281 C 62.71875 188.816406 62.988281 186.648438 63.308594 184.488281 C 63.628906 182.328125 64 180.179688 64.425781 178.039062 C 64.855469 175.894531 65.332031 173.765625 65.863281 171.648438 C 66.394531 169.527344 66.976562 167.425781 67.609375 165.335938 C 68.242188 163.246094 68.929688 161.171875 69.664062 159.117188 C 70.398438 157.0625 71.183594 155.023438 72.019531 153.007812 C 72.855469 150.988281 73.742188 148.992188 74.675781 147.019531 C 75.609375 145.046875 76.589844 143.097656 77.617188 141.171875 C 78.648438 139.242188 79.722656 137.34375 80.847656 135.472656 C 81.96875 133.597656 83.136719 131.753906 84.351562 129.9375 C 85.5625 128.121094 86.820312 126.339844 88.121094 124.585938 C 89.421875 122.832031 90.765625 121.109375 92.152344 119.421875 C 93.535156 117.734375 94.960938 116.082031 96.429688 114.460938 C 97.894531 112.84375 99.402344 111.261719 100.945312 109.71875 C 102.488281 108.175781 104.070312 106.667969 105.6875 105.203125 C 107.304688 103.738281 108.957031 102.3125 110.648438 100.925781 C 112.335938 99.539062 114.054688 98.199219 115.808594 96.898438 C 117.5625 95.597656 119.347656 94.339844 121.164062 93.125 C 122.980469 91.914062 124.824219 90.746094 126.695312 89.621094 C 128.570312 88.5 130.46875 87.421875 132.394531 86.394531 C 134.320312 85.363281 136.269531 84.382812 138.246094 83.449219 C 140.21875 82.515625 142.214844 81.632812 144.230469 80.796875 C 146.25 79.960938 148.285156 79.175781 150.34375 78.4375 C 152.398438 77.703125 154.472656 77.019531 156.5625 76.382812 C 158.652344 75.75 160.753906 75.167969 162.871094 74.636719 C 164.992188 74.105469 167.121094 73.628906 169.261719 73.203125 C 171.40625 72.777344 173.554688 72.402344 175.714844 72.082031 C 177.875 71.761719 180.042969 71.496094 182.214844 71.28125 C 184.386719 71.066406 186.566406 70.90625 188.746094 70.800781 C 190.925781 70.691406 193.109375 70.636719 195.292969 70.636719 C 197.476562 70.636719 199.660156 70.691406 201.839844 70.800781 C 204.023438 70.90625 206.199219 71.066406 208.371094 71.28125 C 210.546875 71.496094 212.710938 71.761719 214.871094 72.082031 C 217.03125 72.402344 219.183594 72.777344 221.324219 73.203125 C 223.464844 73.628906 225.597656 74.105469 227.714844 74.636719 C 229.832031 75.167969 231.9375 75.75 234.027344 76.382812 C 236.117188 77.019531 238.1875 77.703125 240.246094 78.4375 C 242.300781 79.175781 244.335938 79.960938 246.355469 80.796875 C 248.371094 81.632812 250.367188 82.515625 252.34375 83.449219 C 254.316406 84.382812 256.265625 85.363281 258.191406 86.394531 C 260.117188 87.421875 262.015625 88.5 263.890625 89.621094 C 265.761719 90.746094 267.609375 91.914062 269.421875 93.125 C 271.238281 94.339844 273.023438 95.597656 274.777344 96.898438 C 276.53125 98.199219 278.253906 99.539062 279.941406 100.925781 C 281.628906 102.3125 283.28125 103.738281 284.898438 105.203125 C 286.515625 106.667969 288.097656 108.175781 289.644531 109.71875 C 291.1875 111.261719 292.691406 112.84375 294.160156 114.460938 C 295.625 116.082031 297.050781 117.734375 298.4375 119.421875 C 299.820312 121.109375 301.164062 122.832031 302.464844 124.585938 C 303.765625 126.339844 305.023438 128.121094 306.234375 129.9375 C 307.449219 131.753906 308.617188 133.597656 309.738281 135.472656 C 310.863281 137.34375 311.9375 139.242188 312.96875 141.171875 C 313.996094 143.097656 314.980469 145.046875 315.914062 147.019531 C 316.847656 148.992188 317.730469 150.988281 318.566406 153.007812 C 319.402344 155.023438 320.1875 157.0625 320.921875 159.117188 C 321.660156 161.171875 322.34375 163.246094 322.976562 165.335938 C 323.613281 167.425781 324.195312 169.527344 324.722656 171.648438 C 325.253906 173.765625 325.734375 175.894531 326.160156 178.039062 C 326.585938 180.179688 326.957031 182.328125 327.277344 184.488281 C 327.597656 186.648438 327.867188 188.816406 328.082031 190.988281 C 328.292969 193.164062 328.457031 195.339844 328.5625 197.519531 C 328.667969 199.703125 328.722656 201.882812 328.722656 204.066406 Z M 328.722656 204.066406 " fill-opacity="1" fill-rule="nonzero"/></g><g fill="#fff9f9" fill-opacity="1"><g transform="translate(96.333447, 267.077657)"><g><path d="M 50.78125 0 C 41.195312 0 32.703125 -1.769531 25.296875 -5.3125 C 17.890625 -8.863281 12.101562 -14.1875 7.9375 -21.28125 C 3.769531 -28.375 1.6875 -37.273438 1.6875 -47.984375 L 1.6875 -130.875 L 47.609375 -130.875 L 47.609375 -104.734375 L 79.53125 -104.734375 L 79.53125 -61.421875 L 47.609375 -61.421875 L 47.609375 -45.921875 C 47.609375 -44.304688 48.414062 -43.5 50.03125 -43.5 L 79.53125 -43.5 L 79.53125 0 Z M 50.78125 0 "/></g></g></g><g clip-path="url(#0b196c4160)"><g clip-path="url(#52fa1a9361)"><g clip-path="url(#364606d15e)"><g clip-path="url(#8a4968a04d)"><path fill="#fff9f9" d="M 23.648438 137.015625 L 5.335938 234.859375 L 140.535156 260.164062 L 158.84375 162.320312 Z M 23.648438 137.015625 " fill-opacity="1" fill-rule="nonzero"/></g></g></g></g><g clip-path="url(#0563cb7e6d)"><g clip-path="url(#4cffcad0cf)"><g clip-path="url(#e84f0b24a7)"><g clip-path="url(#93d31bcf02)"><path fill="#fff9f9" d="M 54.121094 158.605469 L 51.6875 171.609375 L 64.691406 174.042969 L 67.125 161.039062 Z M 54.121094 158.605469 " fill-opacity="1" fill-rule="nonzero"/></g></g></g></g><g clip-path="url(#c9bf06e2ba)"><g clip-path="url(#daf14add93)"><g clip-path="url(#a67ca2cfb8)"><g clip-path="url(#51835a79ff)"><path fill="#fff9f9" d="M 89.414062 152.308594 L 87.953125 160.117188 L 95.761719 161.578125 L 97.222656 153.769531 Z M 89.414062 152.308594 " fill-opacity="1" fill-rule="nonzero"/></g></g></g></g><g clip-path="url(#ac7c21fa79)"><g clip-path="url(#267a5f56b4)"><g clip-path="url(#fd0870b1d6)"><g clip-path="url(#51a83c6b75)"><path fill="#fff9f9" d="M 130.46875 204.28125 L 128.179688 216.519531 L 140.414062 218.808594 L 142.707031 206.570312 Z M 130.46875 204.28125 " fill-opacity="1" fill-rule="nonzero"/></g></g></g></g><path stroke-linecap="butt" transform="matrix(2.559499, 0, 0, 2.559499, 165.849486, 90.296303)" fill="none" stroke-linejoin="miter" d="M 21.771736 25.079901 C 24.506646 25.079901 27.053836 25.595749 29.414833 26.628971 C 31.784987 27.662193 33.689657 29.289099 35.130369 31.511213 C 36.572606 33.733328 37.292962 36.61933 37.292962 40.170745 L 37.292962 55.000614 L 24.271615 55.000614 L 24.271615 40.170745 C 24.271615 39.319138 24.033531 38.664408 23.555837 38.203502 C 23.078144 37.744123 22.527194 37.496882 21.902987 37.46178 C 21.277254 37.419047 20.726304 37.622029 20.24861 38.073777 C 19.772443 38.516369 19.532833 39.215358 19.532833 40.170745 L 19.532833 55.000614 L 6.409231 55.000614 L 6.409231 17.619945 L 19.532833 17.619945 L 19.532833 25.235571 C 20.279134 25.131791 21.025435 25.079901 21.771736 25.079901 Z M 21.771736 25.079901 " stroke="#171616" stroke-width="3.999998" stroke-opacity="1" stroke-miterlimit="4"/><g fill="#fff9f9" fill-opacity="1"><g transform="translate(180.886542, 231.068742)"><g><path d="M 40.671875 -76.578125 C 47.679688 -76.578125 54.210938 -75.253906 60.265625 -72.609375 C 66.316406 -69.972656 71.179688 -65.8125 74.859375 -60.125 C 78.546875 -54.4375 80.390625 -47.046875 80.390625 -37.953125 L 80.390625 0 L 47.09375 0 L 47.09375 -37.953125 C 47.09375 -40.128906 46.476562 -41.804688 45.25 -42.984375 C 44.019531 -44.171875 42.609375 -44.8125 41.015625 -44.90625 C 39.421875 -45 38.007812 -44.472656 36.78125 -43.328125 C 35.550781 -42.191406 34.9375 -40.398438 34.9375 -37.953125 L 34.9375 0 L 1.359375 0 L 1.359375 -95.6875 L 34.9375 -95.6875 L 34.9375 -76.171875 C 36.851562 -76.441406 38.765625 -76.578125 40.671875 -76.578125 Z M 40.671875 -76.578125 "/></g></g></g><path stroke-linecap="butt" transform="matrix(2.559499, 0, 0, 2.559499, 216.48522, 128.441696)" fill="none" stroke-linejoin="miter" d="M 25.610457 41.511919 C 26.401017 41.086115 26.864975 40.490906 27.003857 39.727817 C 27.142739 38.955571 26.973334 38.26116 26.49564 37.644585 C 26.019473 37.018852 25.228913 36.707512 24.127012 36.707512 C 23.19757 36.672409 22.494002 36.93186 22.017835 37.487388 C 21.540141 38.035286 21.2929 38.673228 21.274586 39.402741 C 21.257798 40.130728 21.469937 40.782406 21.912529 41.354722 C 22.35512 41.919408 23.058688 42.201751 24.021706 42.201751 L 39.112551 42.201751 L 39.112551 55.000277 L 24.021706 55.000277 C 21.886584 55.000277 19.894922 54.600418 18.046721 53.802227 C 16.196993 53.004036 14.560931 51.892979 13.137007 50.469055 C 11.71461 49.045132 10.603552 47.409069 9.803835 45.560868 C 9.005644 43.711141 8.607312 41.719479 8.607312 39.584356 C 8.607312 36.780768 9.236097 34.22442 10.495194 31.915314 C 11.761921 29.598576 13.558232 27.739692 15.885653 26.343239 C 18.211548 24.936103 20.975456 24.215747 24.178902 24.182172 C 25.845488 24.182172 27.524284 24.34242 29.216815 24.662917 C 30.909346 24.975784 32.502675 25.578624 33.995277 26.472964 C 35.489405 27.358147 36.730187 28.673712 37.719151 30.418133 C 38.144954 31.164434 38.453242 32.054196 38.644014 33.087418 C 38.843943 34.111483 38.9172 35.166072 38.86531 36.251184 C 38.81342 37.336297 38.592124 38.351205 38.201423 39.297435 C 37.810721 40.236034 37.207881 40.973178 36.391376 41.511919 Z M 25.610457 41.511919 " stroke="#171616" stroke-width="3.999998" stroke-opacity="1" stroke-miterlimit="4"/><g fill="#fff9f9" fill-opacity="1"><g transform="translate(237.281148, 269.214135)"><g><path d="M 44.765625 -34.53125 C 46.773438 -35.625 47.957031 -37.148438 48.3125 -39.109375 C 48.675781 -41.066406 48.242188 -42.835938 47.015625 -44.421875 C 45.796875 -46.015625 43.773438 -46.8125 40.953125 -46.8125 C 38.585938 -46.90625 36.789062 -46.242188 35.5625 -44.828125 C 34.332031 -43.421875 33.691406 -41.785156 33.640625 -39.921875 C 33.597656 -38.054688 34.144531 -36.394531 35.28125 -34.9375 C 36.414062 -33.488281 38.210938 -32.765625 40.671875 -32.765625 L 79.3125 -32.765625 L 79.3125 0 L 40.671875 0 C 35.210938 0 30.117188 -1.019531 25.390625 -3.0625 C 20.660156 -5.113281 16.472656 -7.957031 12.828125 -11.59375 C 9.191406 -15.238281 6.347656 -19.425781 4.296875 -24.15625 C 2.253906 -28.894531 1.234375 -33.992188 1.234375 -39.453125 C 1.234375 -46.640625 2.847656 -53.191406 6.078125 -59.109375 C 9.304688 -65.023438 13.898438 -69.78125 19.859375 -73.375 C 25.816406 -76.96875 32.894531 -78.804688 41.09375 -78.890625 C 45.363281 -78.890625 49.660156 -78.476562 53.984375 -77.65625 C 58.304688 -76.84375 62.378906 -75.296875 66.203125 -73.015625 C 70.023438 -70.742188 73.207031 -67.378906 75.75 -62.921875 C 76.84375 -61.015625 77.640625 -58.738281 78.140625 -56.09375 C 78.640625 -53.457031 78.820312 -50.75 78.6875 -47.96875 C 78.550781 -45.195312 77.984375 -42.601562 76.984375 -40.1875 C 75.984375 -37.78125 74.4375 -35.894531 72.34375 -34.53125 Z M 44.765625 -34.53125 "/></g></g></g><g fill="#fff9f9" fill-opacity="1"><g transform="translate(261.20518, 180.818245)"><g><path d="M 10.046875 -1.171875 C 8.492188 -0.929688 7.113281 -0.984375 5.90625 -1.328125 C 4.695312 -1.679688 3.65625 -2.25 2.78125 -3.03125 C 1.90625 -3.820312 1.191406 -4.773438 0.640625 -5.890625 C 0.0976562 -7.003906 -0.265625 -8.203125 -0.453125 -9.484375 C -0.648438 -10.773438 -0.648438 -12.03125 -0.453125 -13.25 C -0.265625 -14.46875 0.128906 -15.578125 0.734375 -16.578125 C 1.335938 -17.585938 2.164062 -18.4375 3.21875 -19.125 C 4.269531 -19.8125 5.570312 -20.273438 7.125 -20.515625 C 8.65625 -20.742188 10.023438 -20.679688 11.234375 -20.328125 C 12.453125 -19.972656 13.460938 -19.378906 14.265625 -18.546875 C 15.078125 -17.722656 15.648438 -16.710938 15.984375 -15.515625 L 12.15625 -14.9375 C 11.84375 -15.914062 11.269531 -16.601562 10.4375 -17 C 9.601562 -17.40625 8.628906 -17.523438 7.515625 -17.359375 C 6.367188 -17.179688 5.445312 -16.757812 4.75 -16.09375 C 4.050781 -15.425781 3.570312 -14.570312 3.3125 -13.53125 C 3.050781 -12.5 3.019531 -11.335938 3.21875 -10.046875 C 3.40625 -8.765625 3.773438 -7.65625 4.328125 -6.71875 C 4.890625 -5.789062 5.601562 -5.113281 6.46875 -4.6875 C 7.332031 -4.257812 8.335938 -4.132812 9.484375 -4.3125 C 10.597656 -4.476562 11.484375 -4.882812 12.140625 -5.53125 C 12.804688 -6.1875 13.148438 -7.078125 13.171875 -8.203125 L 17 -8.78125 C 17.039062 -7.46875 16.800781 -6.273438 16.28125 -5.203125 C 15.757812 -4.140625 14.972656 -3.257812 13.921875 -2.5625 C 12.867188 -1.863281 11.578125 -1.398438 10.046875 -1.171875 Z M 10.046875 -1.171875 "/></g></g></g><g fill="#fff9f9" fill-opacity="1"><g transform="translate(282.385829, 178.019407)"><g><path d="M 9.578125 3.265625 C 8.097656 2.816406 6.878906 2.171875 5.921875 1.328125 C 4.972656 0.492188 4.269531 -0.460938 3.8125 -1.546875 C 3.363281 -2.628906 3.132812 -3.789062 3.125 -5.03125 C 3.113281 -6.269531 3.296875 -7.515625 3.671875 -8.765625 C 4.054688 -10.003906 4.59375 -11.132812 5.28125 -12.15625 C 5.976562 -13.175781 6.816406 -14.007812 7.796875 -14.65625 C 8.785156 -15.300781 9.90625 -15.707031 11.15625 -15.875 C 12.414062 -16.039062 13.785156 -15.898438 15.265625 -15.453125 C 16.765625 -14.992188 17.988281 -14.34375 18.9375 -13.5 C 19.894531 -12.664062 20.597656 -11.707031 21.046875 -10.625 C 21.503906 -9.539062 21.742188 -8.378906 21.765625 -7.140625 C 21.785156 -5.898438 21.601562 -4.660156 21.21875 -3.421875 C 20.84375 -2.171875 20.300781 -1.035156 19.59375 -0.015625 C 18.894531 1.003906 18.050781 1.835938 17.0625 2.484375 C 16.082031 3.128906 14.960938 3.535156 13.703125 3.703125 C 12.453125 3.867188 11.078125 3.722656 9.578125 3.265625 Z M 10.5 0.21875 C 11.625 0.5625 12.648438 0.582031 13.578125 0.28125 C 14.515625 -0.0078125 15.332031 -0.566406 16.03125 -1.390625 C 16.738281 -2.222656 17.28125 -3.265625 17.65625 -4.515625 C 18.039062 -5.753906 18.164062 -6.90625 18.03125 -7.96875 C 17.90625 -9.03125 17.535156 -9.941406 16.921875 -10.703125 C 16.316406 -11.472656 15.453125 -12.03125 14.328125 -12.375 C 13.242188 -12.695312 12.226562 -12.710938 11.28125 -12.421875 C 10.34375 -12.128906 9.523438 -11.578125 8.828125 -10.765625 C 8.140625 -9.953125 7.601562 -8.925781 7.21875 -7.6875 C 6.84375 -6.4375 6.710938 -5.269531 6.828125 -4.1875 C 6.953125 -3.113281 7.320312 -2.191406 7.9375 -1.421875 C 8.5625 -0.648438 9.414062 -0.101562 10.5 0.21875 Z M 10.5 0.21875 "/></g></g></g><g fill="#fff9f9" fill-opacity="1"><g transform="translate(303.818859, 185.452854)"><g><path d="M 15.046875 2.359375 L 12.15625 10.734375 L 9.328125 8.234375 L 12.078125 0.609375 L 8.9375 -2.1875 L 3.9375 3.46875 L 1.265625 1.125 L 13.765625 -13.015625 L 19.859375 -7.640625 C 20.742188 -6.859375 21.394531 -6.019531 21.8125 -5.125 C 22.226562 -4.238281 22.351562 -3.320312 22.1875 -2.375 C 22.03125 -1.4375 21.519531 -0.476562 20.65625 0.5 C 19.832031 1.425781 18.929688 2.039062 17.953125 2.34375 C 16.984375 2.65625 16.015625 2.660156 15.046875 2.359375 Z M 17.375 -5.578125 L 14.328125 -8.28125 L 11 -4.515625 L 14.046875 -1.8125 C 14.765625 -1.175781 15.453125 -0.851562 16.109375 -0.84375 C 16.773438 -0.832031 17.378906 -1.132812 17.921875 -1.75 C 18.453125 -2.351562 18.671875 -2.984375 18.578125 -3.640625 C 18.484375 -4.304688 18.082031 -4.953125 17.375 -5.578125 Z M 17.375 -5.578125 "/></g></g></g><g fill="#fff9f9" fill-opacity="1"><g transform="translate(318.280698, 198.724789)"><g><path d="M 2.203125 4.765625 L 0.703125 1.53125 L 17.84375 -6.390625 L 19.53125 -2.765625 L 10.515625 9.953125 L 22.78125 4.28125 L 24.265625 7.515625 L 7.125 15.4375 L 5.4375 11.75 L 14.484375 -0.90625 Z M 2.203125 4.765625 "/></g></g></g><g fill="#fff9f9" fill-opacity="1"><g transform="translate(326.417569, 218.375866)"><g><path d="M 0.484375 14.25 L 0.0625 1.6875 L 18.921875 1.046875 L 19.34375 13.609375 L 16.15625 13.71875 L 15.84375 4.71875 L 11.203125 4.875 L 11.484375 12.953125 L 8.3125 13.0625 L 8.03125 4.984375 L 3.359375 5.140625 L 3.671875 14.140625 Z M 0.484375 14.25 "/></g></g></g><g fill="#fff9f9" fill-opacity="1"><g transform="translate(326.65107, 236.505977)"><g><path d="M 3.265625 14.875 L -5.578125 15.234375 L -4.28125 11.671875 L 3.828125 11.46875 L 5.265625 7.515625 L -1.8125 4.921875 L -0.578125 1.578125 L 17.140625 8.078125 L 14.34375 15.71875 C 13.925781 16.832031 13.378906 17.742188 12.703125 18.453125 C 12.035156 19.160156 11.234375 19.609375 10.296875 19.796875 C 9.359375 19.992188 8.28125 19.867188 7.0625 19.421875 C 5.894531 18.992188 4.988281 18.378906 4.34375 17.578125 C 3.707031 16.785156 3.347656 15.882812 3.265625 14.875 Z M 11.515625 14.15625 L 12.921875 10.328125 L 8.1875 8.59375 L 6.78125 12.421875 C 6.457031 13.328125 6.410156 14.085938 6.640625 14.703125 C 6.878906 15.316406 7.382812 15.769531 8.15625 16.0625 C 8.914062 16.332031 9.582031 16.300781 10.15625 15.96875 C 10.738281 15.644531 11.191406 15.039062 11.515625 14.15625 Z M 11.515625 14.15625 "/></g></g></g></svg>