<?xml version="1.0" encoding="UTF-8"?>
<svg version="1.1" xmlns="http://www.w3.org/2000/svg" width="512" height="512">
<path d="M0 0 C1.29115723 0.0616333 1.29115723 0.0616333 2.60839844 0.12451172 C48.07602452 2.50832528 91.8038068 16.99588263 128 45 C128.81339844 45.62132812 129.62679688 46.24265625 130.46484375 46.8828125 C145.0369343 58.2550285 158.74798526 71.3344527 170 86 C170.48194824 86.62197266 170.96389648 87.24394531 171.46044922 87.88476562 C194.66546255 118.05345233 208.39118475 152.72390521 215 190 C215.13422363 190.75506836 215.26844727 191.51013672 215.40673828 192.28808594 C224.63992132 247.58329463 208.97871706 307.51820536 177 353 C171.03215031 361.29416025 164.41567463 368.93698824 157.4296875 376.3828125 C155.48217645 378.48061379 153.62911965 380.60309773 151.8125 382.8125 C148.56515807 386.63775871 144.82537302 389.76898245 141 393 C140.08605469 393.81339844 139.17210937 394.62679688 138.23046875 395.46484375 C119.42260536 412.07178695 83.46143798 439 57 439 C57 431.74 57 424.48 57 417 C59.76692708 416.57682292 62.53385417 416.15364583 65.30078125 415.73046875 C68.19391865 414.94752129 69.26662331 414.40653269 71 412 C72.15810873 408.55608179 72.06973731 405.36415258 71.9831543 401.75366211 C71.9452906 399.85534889 71.9452906 399.85534889 71.90666199 397.91868591 C71.8922576 397.24445524 71.8778532 396.57022457 71.86301231 395.87556267 C71.78253956 391.52305037 71.77070821 387.16969432 71.74791241 382.81656551 C71.72409828 379.00313661 71.67535018 375.19325483 71.5715332 371.38110352 C70.87366878 344.59448474 70.87366878 344.59448474 75.93530273 338.74365234 C79.28915253 335.80551881 83.01357708 333.954999 87 332 C89.36109818 330.13776544 89.36109818 330.13776544 91.26171875 328.171875 C92.12470581 327.32629028 92.12470581 327.32629028 93.00512695 326.46362305 C93.83790161 325.61537964 93.83790161 325.61537964 94.6875 324.75 C95.61792114 323.8060437 95.61792114 323.8060437 96.56713867 322.84301758 C124.58825264 293.78154254 135.55889402 256.897695 135.21484375 217.3046875 C135.03581116 208.62883514 134.07147864 200.41929758 132 192 C131.82839355 191.29520508 131.65678711 190.59041016 131.47998047 189.86425781 C122.29015258 153.38417249 99.17967516 122.03457697 66.98828125 102.53125 C32.97430286 82.54065049 -5.82556092 77.02591834 -44.06420898 86.64355469 C-53.45101583 89.17551562 -62.26807323 92.75044597 -71 97 C-71.97324219 97.47179687 -72.94648438 97.94359375 -73.94921875 98.4296875 C-85.80370781 104.555949 -96.39478152 112.79300783 -106 122 C-106.80824219 122.74507813 -107.61648437 123.49015625 -108.44921875 124.2578125 C-131.77946247 146.45267544 -147.56911119 180.02450166 -149.16113281 212.26293945 C-149.49803028 234.80499172 -149.49803028 234.80499172 -146 257 C-145.83371094 257.69270996 -145.66742188 258.38541992 -145.49609375 259.09912109 C-139.71061472 282.48209884 -128.31313779 303.34144879 -112 321 C-111.53368164 321.51014648 -111.06736328 322.02029297 -110.58691406 322.54589844 C-100.74936351 333.19367965 -89.51183821 341.63134038 -76.9375 348.8125 C-76.35000977 349.14918701 -75.76251953 349.48587402 -75.15722656 349.83276367 C-68.61758404 353.42851284 -61.94462121 356.02373377 -55 359 C-54.67 386.39 -54.34 413.78 -54 442 C-49.05 442.99 -44.1 443.98 -39 445 C-39 418.27 -39 391.54 -39 364 C-27.12 365.485 -27.12 365.485 -15 367 C-7.08 367 0.84 367 9 367 C9 393.73 9 420.46 9 448 C-2.8305558 448.62266083 -13.56332106 449.08797551 -25.1875 448.0625 C-27.06211914 447.91264648 -27.06211914 447.91264648 -28.97460938 447.75976562 C-31.98417679 447.51761652 -34.99232272 447.26442186 -38 447 C-38.00364563 447.7553302 -38.00729126 448.5106604 -38.01104736 449.28887939 C-38.04892923 456.41053567 -38.10578301 463.53166894 -38.18390274 470.65298843 C-38.22339643 474.31408723 -38.25557521 477.97494485 -38.27099609 481.63623047 C-38.28615087 485.17026922 -38.32057361 488.70364501 -38.36830902 492.23738861 C-38.39034624 494.24028962 -38.39247476 496.24337756 -38.39434814 498.24639893 C-38.41406677 499.46736267 -38.4337854 500.68832642 -38.45410156 501.94628906 C-38.46298401 503.02106506 -38.47186646 504.09584106 -38.48101807 505.20318604 C-39.12238205 508.65952168 -40.27827841 509.84586983 -43 512 C-45 512.53125 -45 512.53125 -47 512.5 C-47.66 512.5103125 -48.32 512.520625 -49 512.53125 C-51.95159904 511.7472315 -53.0978974 510.36651206 -55 508 C-55.48101807 505.05133057 -55.48101807 505.05133057 -55.45410156 501.57910156 C-55.45379944 500.27805481 -55.45349731 498.97700806 -55.45318604 497.63653564 C-55.43276086 496.22122585 -55.4118969 494.80592232 -55.390625 493.390625 C-55.38316145 491.93903381 -55.37746905 490.48743252 -55.37347412 489.03582764 C-55.35822643 485.22153742 -55.31895309 481.40785979 -55.2746582 477.59381104 C-55.23368623 473.69934373 -55.21545906 469.80477711 -55.1953125 465.91015625 C-55.15245713 458.27315871 -55.08421739 450.6366653 -55 443 C-56.22887939 442.85755859 -57.45775879 442.71511719 -58.72387695 442.56835938 C-104.88878365 436.77593242 -153.26978846 401.88311457 -181.56640625 366.171875 C-182.36949219 365.12515625 -183.17257813 364.0784375 -184 363 C-184.48194824 362.37802734 -184.96389648 361.75605469 -185.46044922 361.11523438 C-221.56471077 314.17631907 -237.41547096 253.45188943 -229.8125 194.75 C-229.28446044 191.15071642 -228.6692627 187.57554915 -228 184 C-227.83371094 183.09958984 -227.66742188 182.19917969 -227.49609375 181.27148438 C-219.22309909 138.0374271 -198.38667615 99.55764633 -168 68 C-167.49823242 67.47631836 -166.99646484 66.95263672 -166.47949219 66.41308594 C-124.03303742 22.32882584 -61.26813613 -2.93238533 0 0 Z " fill="#FFFFFF" transform="translate(263,0)"/>
<path d="M0 0 C23.7951789 21.27104576 39.31101604 52.27019925 41.38842773 84.20727539 C42.71452738 124.66047492 31.25028583 156.91973423 4.03662109 186.99145508 C1.85344368 189.23785186 -0.49635116 191.09284308 -3.01391602 192.95483398 C-3.73050888 193.48654205 -4.44710175 194.01825012 -5.18540955 194.56607056 C-5.72960037 194.96683807 -6.2737912 195.36760559 -6.83447266 195.78051758 C-6.84255951 194.86169296 -6.85064636 193.94286835 -6.85897827 192.99620056 C-6.93740032 184.27408677 -7.02482821 175.55211744 -7.12199974 166.83019161 C-7.17163112 162.34776245 -7.21795969 157.86535317 -7.25634766 153.3828125 C-7.29362485 149.04493155 -7.34009016 144.70723185 -7.39253616 140.36950874 C-7.41085768 138.72682485 -7.42604456 137.08410245 -7.43781662 135.44135857 C-7.59761762 113.88303282 -9.60558264 92.18751469 -24.99853516 75.49145508 C-34.65988433 66.48789989 -46.58610191 58.83629925 -59.83447266 56.78051758 C-64.90561196 56.97758836 -64.90561196 56.97758836 -68.83447266 59.78051758 C-70.07167009 63.23533508 -69.9725959 66.6577003 -69.99269104 70.29779053 C-69.99762902 70.95049305 -70.00256699 71.60319558 -70.00765461 72.27567697 C-70.02300037 74.46055622 -70.03138227 76.64540614 -70.03979492 78.83032227 C-70.04937575 80.39739743 -70.05938595 81.96447002 -70.0697937 83.53153992 C-70.09682669 87.78528315 -70.11784496 92.03903747 -70.13779569 96.29281902 C-70.15966513 100.73846644 -70.18704913 105.18407978 -70.21385193 109.62969971 C-70.26376584 118.04792327 -70.30870951 126.46616577 -70.35187429 134.88442636 C-70.40125777 144.46839795 -70.45617179 154.05233535 -70.51155388 163.63627386 C-70.62535396 183.3509899 -70.73219732 203.0657386 -70.83447266 222.78051758 C-72.26466554 222.94495675 -73.69503996 223.10781748 -75.12548828 223.27001953 C-75.92200806 223.36088333 -76.71852783 223.45174713 -77.53918457 223.54536438 C-85.94293382 224.40633191 -94.34268964 223.866741 -102.70947266 222.90551758 C-103.39847656 222.82712646 -104.08748047 222.74873535 -104.79736328 222.66796875 C-109.66123158 222.05764456 -114.01106135 220.9863704 -118.83447266 219.78051758 C-118.83447266 204.60051758 -118.83447266 189.42051758 -118.83447266 173.78051758 C-115.20447266 172.13051758 -111.57447266 170.48051758 -107.83447266 168.78051758 C-98.05665247 162.26197079 -92.26952878 155.19421005 -88.83447266 143.78051758 C-87.58276649 135.39697138 -87.67060193 127.00245101 -87.66650391 118.54614258 C-87.66328514 116.97914602 -87.65992061 115.41214976 -87.65641785 113.84515381 C-87.65046081 110.57734479 -87.64857468 107.3095621 -87.64916992 104.04174805 C-87.64927199 99.85996814 -87.63555878 95.67835631 -87.61839771 91.49661636 C-87.60727566 88.26752955 -87.60525069 85.03848358 -87.60577965 81.80937958 C-87.6046022 80.26724411 -87.60019364 78.72510749 -87.59244728 77.18299103 C-87.582632 75.02950682 -87.58553004 72.87639072 -87.59155273 70.72290039 C-87.59012772 69.49984192 -87.5887027 68.27678345 -87.5872345 67.0166626 C-87.8336784 63.79091373 -88.31322203 61.62378646 -89.83447266 58.78051758 C-92.66164478 56.44755507 -92.66164478 56.44755507 -95.89697266 57.03051758 C-98.93393166 57.53984197 -98.93393166 57.53984197 -100.83447266 59.78051758 C-102.1407345 63.39947939 -102.0415254 67.14064166 -102.15087891 70.95239258 C-102.18205055 71.97601898 -102.18205055 71.97601898 -102.21385193 73.02032471 C-102.27899318 75.19029114 -102.33806669 77.36037382 -102.39697266 79.53051758 C-102.44019162 81.00578979 -102.48380698 82.48105045 -102.52783203 83.95629883 C-102.63538077 87.56425457 -102.73471617 91.17230436 -102.83447266 94.78051758 C-108.11447266 94.78051758 -113.39447266 94.78051758 -118.83447266 94.78051758 C-118.88345703 92.60071289 -118.93244141 90.4209082 -118.98291016 88.17504883 C-119.03698956 86.05348105 -119.09426954 83.93202203 -119.15185547 81.81054688 C-119.19003218 80.34122896 -119.22490447 78.87182118 -119.25634766 77.40234375 C-119.30224555 75.28458644 -119.36019637 73.16744168 -119.42041016 71.05004883 C-119.45183105 69.77750244 -119.48325195 68.50495605 -119.515625 67.19384766 C-119.82149873 63.9194061 -120.28911069 61.6682463 -121.83447266 58.78051758 C-124.66164478 56.44755507 -124.66164478 56.44755507 -127.89697266 57.03051758 C-130.93393166 57.53984197 -130.93393166 57.53984197 -132.83447266 59.78051758 C-134.1407345 63.39947939 -134.0415254 67.14064166 -134.15087891 70.95239258 C-134.18205055 71.97601898 -134.18205055 71.97601898 -134.21385193 73.02032471 C-134.27899318 75.19029114 -134.33806669 77.36037382 -134.39697266 79.53051758 C-134.44019162 81.00578979 -134.48380698 82.48105045 -134.52783203 83.95629883 C-134.63538077 87.56425457 -134.73471617 91.17230436 -134.83447266 94.78051758 C-140.11447266 94.78051758 -145.39447266 94.78051758 -150.83447266 94.78051758 C-150.88345703 92.60071289 -150.93244141 90.4209082 -150.98291016 88.17504883 C-151.03698956 86.05348105 -151.09426954 83.93202203 -151.15185547 81.81054688 C-151.19003218 80.34122896 -151.22490447 78.87182118 -151.25634766 77.40234375 C-151.30224555 75.28458644 -151.36019637 73.16744168 -151.42041016 71.05004883 C-151.45183105 69.77750244 -151.48325195 68.50495605 -151.515625 67.19384766 C-151.82149873 63.9194061 -152.28911069 61.6682463 -153.83447266 58.78051758 C-156.66164478 56.44755507 -156.66164478 56.44755507 -159.89697266 57.03051758 C-162.93393166 57.53984197 -162.93393166 57.53984197 -164.83447266 59.78051758 C-166.11207217 63.30924333 -165.96807985 66.84253537 -165.97973633 70.56176758 C-165.98309494 71.23557968 -165.98645355 71.90939178 -165.98991394 72.60362244 C-165.99940303 74.82927301 -166.00136669 77.05484804 -166.00244141 79.28051758 C-166.00565777 80.83789093 -166.00902213 82.39526399 -166.01252747 83.95263672 C-166.01851532 87.22095437 -166.02036796 90.48924561 -166.01977539 93.75756836 C-166.01967433 97.91526289 -166.03326953 102.07278448 -166.0505476 106.23043823 C-166.06175599 109.45124057 -166.06369183 112.67200244 -166.06316566 115.89282227 C-166.06433471 117.42358999 -166.06869495 118.95435914 -166.07649803 120.48510742 C-166.1470226 135.76233332 -165.51884895 150.9027691 -154.52197266 162.71801758 C-148.76636343 167.93999416 -141.9130514 170.74684097 -134.83447266 173.78051758 C-134.83447266 186.98051758 -134.83447266 200.18051758 -134.83447266 213.78051758 C-164.16703399 204.00299713 -187.83784755 181.09035191 -201.83447266 153.78051758 C-210.73199535 135.17779078 -215.24340469 116.17937179 -215.14697266 95.53051758 C-215.14133301 94.25781006 -215.13569336 92.98510254 -215.12988281 91.67382812 C-214.68488833 57.07220291 -199.81712217 25.44025876 -175.23583984 1.2043457 C-125.97872578 -45.07214449 -50.13334108 -43.34344382 0 0 Z " fill="#FFFFFF" transform="translate(342.83447265625,129.219482421875)"/>
<path d="M0 0 C14.95901381 7.4795069 24.19957121 14.53823188 30.07196045 30.19146729 C32.57094367 37.8383319 32.53365692 45.29158074 32.45410156 53.23339844 C32.45297079 54.83120698 32.45361143 56.4290176 32.45587158 58.02682495 C32.45701069 62.32781626 32.43363288 66.62835363 32.40557575 70.92924023 C32.38042693 75.43752374 32.37820954 79.94581976 32.37347412 84.4541626 C32.36108371 92.97494413 32.32831585 101.49551831 32.28807616 110.01620889 C32.24323538 119.72364917 32.22134057 129.43109979 32.20129442 139.13861799 C32.1595793 159.09255314 32.08627664 179.04620434 32 199 C21.44 199 10.88 199 0 199 C0 133.33 0 67.66 0 0 Z " fill="#FFFFFF" transform="translate(288,202)"/>
<path d="M0 0 C15.84 0 31.68 0 48 0 C48.12375 5.07375 48.2475 10.1475 48.375 15.375 C48.42962402 16.95458496 48.48424805 18.53416992 48.54052734 20.16162109 C48.64190574 28.78314524 47.84106641 35.22656088 42 42 C36.3524697 47.28277966 29.92077164 49.49221385 22.109375 49.25 C14.46283439 48.34374333 8.54750807 45.37686227 3.64868164 39.33276367 C-1.29513134 31.81916988 -0.56081155 24.10379273 -0.3125 15.4375 C-0.209375 10.343125 -0.10625 5.24875 0 0 Z " fill="#FFFFFF" transform="translate(192,240)"/>
<path d="M0 0 C5.28 0 10.56 0 16 0 C16.09262544 11.79577606 16.16372724 23.5914658 16.20724869 35.38753128 C16.22813543 40.86476728 16.25647319 46.34175472 16.30175781 51.81884766 C16.34517637 57.1032328 16.36912892 62.38737867 16.37950897 67.67192841 C16.38690749 69.68940753 16.40135487 71.70687336 16.42292023 73.72425079 C16.45190101 76.54725076 16.45595822 79.36925835 16.45410156 82.19238281 C16.47567322 83.44718697 16.47567322 83.44718697 16.49768066 84.7273407 C16.47146214 88.40448858 16.34914477 90.53824666 14.09661865 93.51727295 C11.82852634 95.12126603 10.7476586 95.54293217 8 95.5 C7.34 95.5103125 6.68 95.520625 6 95.53125 C2.95322646 94.72195078 1.90570246 93.52034268 0 91 C-0.37388741 87.94082198 -0.50663061 85.24795136 -0.45410156 82.19238281 C-0.45468567 81.30422379 -0.45526978 80.41606476 -0.45587158 79.50099182 C-0.45308686 76.56797073 -0.42197651 73.63596836 -0.390625 70.703125 C-0.38316399 68.66860509 -0.3774704 66.634078 -0.37347412 64.59954834 C-0.35820681 59.24656305 -0.31891528 53.89401238 -0.2746582 48.54119873 C-0.23372932 43.07830688 -0.21546818 37.61534475 -0.1953125 32.15234375 C-0.15242231 21.43470495 -0.08415748 10.71738863 0 0 Z " fill="#FFFFFF" transform="translate(288,417)"/>
</svg>
